<?xml version="1.0" standalone="no"?>
<!DOCTYPE svg PUBLIC "-//W3C//DTD SVG 20010904//EN"
 "http://www.w3.org/TR/2001/REC-SVG-20010904/DTD/svg10.dtd">
<svg version="1.0" xmlns="http://www.w3.org/2000/svg"
 width="500.000000pt" height="500.000000pt" viewBox="0 0 500.000000 500.000000"
 preserveAspectRatio="xMidYMid meet">
<metadata>
Created by potrace 1.11, written by Peter Selinger 2001-2013
</metadata>
<g transform="translate(0.000000,500.000000) scale(0.100000,-0.100000)"
fill="#000000" stroke="none">
<path d="M60 4990 c0 -5 7 -10 15 -10 8 0 15 5 15 10 0 6 -7 10 -15 10 -8 0
-15 -4 -15 -10z"/>
<path d="M1343 4988 c-24 -32 -24 -41 0 -19 15 14 27 26 27 28 0 8 -19 2 -27
-9z"/>
<path d="M2950 4986 c69 -26 87 -28 50 -7 -19 11 -46 20 -60 20 -22 0 -20 -2
10 -13z"/>
<path d="M3635 4972 c17 -15 32 -27 34 -25 7 5 -41 53 -53 53 -6 0 3 -13 19
-28z"/>
<path d="M2430 4903 c-45 -45 -97 -79 -114 -75 -9 3 -96 -46 -96 -54 0 -4 7
-4 15 -1 8 4 17 2 21 -4 3 -5 15 -7 27 -4 16 5 18 4 8 -3 -11 -8 -11 -10 0
-15 12 -5 11 -7 -1 -16 -8 -5 -17 -8 -21 -5 -15 9 -16 -37 -1 -53 16 -15 16
-16 -5 -11 -15 4 -20 2 -16 -8 3 -8 -44 -68 -115 -146 -105 -117 -264 -303
-311 -364 -9 -11 25 22 74 75 159 170 359 371 368 371 5 0 -10 -21 -32 -46
-23 -26 -41 -50 -41 -55 0 -11 32 -19 58 -14 20 4 22 2 11 -11 -8 -10 -9 -18
-2 -25 8 -8 13 -5 18 10 3 12 11 21 16 21 6 0 7 -5 4 -10 -10 -16 26 -24 47
-11 11 7 17 8 14 3 -3 -6 0 -13 6 -15 9 -4 8 -6 -2 -7 -8 0 -1 -7 15 -15 l30
-14 -28 4 c-15 2 -25 0 -22 -5 5 -8 70 -4 85 5 4 2 16 -4 27 -14 19 -19 21
-19 36 -1 8 10 12 22 9 26 -4 4 -2 4 5 1 6 -4 24 -2 40 4 15 7 39 12 53 13 18
1 26 7 28 24 2 12 8 20 13 16 5 -3 6 -11 2 -17 -4 -7 0 -6 10 2 9 7 17 10 17
5 0 -5 10 2 21 16 15 18 19 20 15 6 -5 -14 -2 -17 10 -12 9 4 23 1 30 -5 12
-10 13 -8 8 6 -4 9 -2 20 4 24 8 5 1 20 -21 46 -30 38 -28 37 33 -15 36 -30
136 -124 223 -210 87 -85 161 -157 165 -160 26 -18 -132 154 -309 335 -119
122 -151 165 -127 165 10 0 10 2 -1 9 -10 7 -10 10 -1 13 10 3 9 11 -3 34 -12
24 -13 34 -3 52 7 12 16 19 20 15 5 -4 7 -2 5 6 -5 14 -69 42 -105 45 -21 2
-62 29 -109 72 -13 12 -26 19 -29 17 -3 -3 -8 2 -12 11 -9 22 -13 20 -64 -31z"/>
<path d="M2480 4340 c0 -5 5 -10 10 -10 6 0 10 5 10 10 0 6 -4 10 -10 10 -5 0
-10 -4 -10 -10z"/>
<path d="M2486 4291 c-4 -7 -5 -15 -2 -18 9 -9 19 4 14 18 -4 11 -6 11 -12 0z"/>
<path d="M2434 3906 c-38 -25 -53 -42 -62 -72 -6 -22 -34 -66 -62 -99 -149
-177 -147 -174 -54 -84 49 47 97 91 107 99 15 11 17 11 11 -5 -5 -12 -4 -16 4
-11 6 4 19 2 29 -3 10 -5 30 -12 46 -16 15 -3 27 -12 27 -19 0 -8 9 -24 21
-37 13 -16 19 -18 16 -8 -4 12 3 18 25 23 25 5 28 9 19 20 -8 10 -9 16 -1 21
5 3 10 1 10 -4 0 -15 32 -13 54 4 12 9 16 20 12 31 -8 22 75 -53 173 -155 57
-59 64 -65 35 -26 -22 28 -78 92 -126 144 -86 93 -96 113 -74 149 4 8 -135 83
-152 81 -4 0 -30 -15 -58 -33z"/>
<path d="M2557 3629 c-15 -11 -32 -37 -38 -59 -25 -83 58 -166 141 -141 41 12
76 48 86 88 9 35 -4 72 -36 104 -24 24 -37 29 -78 29 -35 0 -57 -6 -75 -21z"/>
<path d="M3470 3150 l0 -500 95 0 95 0 0 155 0 155 28 0 c16 0 35 -6 43 -12 9
-7 51 -71 95 -142 43 -71 88 -135 100 -143 16 -10 47 -13 113 -11 l91 3 -108
167 c-59 92 -117 178 -129 192 -18 20 -20 27 -9 33 8 4 63 71 123 148 l109
140 -85 3 c-47 2 -96 0 -108 -3 -12 -3 -55 -51 -104 -117 -92 -126 -103 -138
-136 -138 l-23 0 0 285 0 285 -95 0 -95 0 0 -500z"/>
<path d="M1387 3633 c-14 -4 -127 -178 -127 -197 0 -12 122 -6 148 8 15 8 65
55 111 105 l83 91 -99 -1 c-54 -1 -106 -3 -116 -6z"/>
<path d="M35 3603 c3 -10 44 -110 90 -223 46 -113 131 -322 189 -465 l104
-260 95 -3 94 -3 18 48 c10 26 95 237 188 468 93 231 172 428 174 438 5 15 -4
17 -89 17 -85 0 -97 -2 -115 -22 -21 -24 -210 -515 -249 -648 -21 -73 -22 -73
-29 -40 -12 57 -246 673 -263 693 -12 14 -32 17 -115 17 -90 0 -99 -2 -92 -17z"/>
<path d="M2134 3528 l-19 -23 23 19 c21 18 27 26 19 26 -2 0 -12 -10 -23 -22z"/>
<path d="M2074 3342 c-28 -10 -70 -33 -92 -51 -36 -28 -42 -30 -42 -14 0 10
-7 29 -16 41 -13 19 -24 22 -85 22 l-69 0 0 -455 0 -455 95 0 95 0 0 130 0
129 53 -24 c61 -29 121 -32 196 -9 122 36 211 186 211 353 0 62 16 77 51 47
14 -12 24 -28 22 -36 -3 -9 4 -5 15 7 l19 22 7 -61 c3 -34 6 -123 6 -199 l0
-139 95 0 95 0 0 345 0 345 -95 0 -95 0 0 -95 0 -95 -25 6 c-16 4 -39 -1 -65
-15 -43 -22 -42 -23 -60 34 -46 142 -183 215 -316 167z m103 -166 c30 -35 43
-87 43 -171 0 -90 -14 -137 -51 -180 -41 -47 -100 -56 -164 -25 l-45 22 0 162
c0 143 2 165 18 179 58 53 159 59 199 13z"/>
<path d="M3020 3341 c-105 -34 -170 -117 -170 -216 1 -45 34 -109 71 -138 19
-14 75 -39 124 -57 115 -40 135 -53 135 -88 0 -15 -4 -32 -8 -38 -27 -41 -118
-45 -186 -9 -70 37 -91 34 -126 -22 -35 -55 -33 -60 53 -98 113 -51 256 -45
352 16 83 53 118 174 76 258 -26 49 -78 84 -178 116 -125 40 -160 78 -113 125
26 26 112 27 178 1 56 -22 70 -17 102 35 21 33 21 36 5 54 -33 37 -115 63
-205 66 -47 2 -96 0 -110 -5z"/>
<path d="M994 3308 c7 -18 68 -158 135 -310 66 -152 121 -282 121 -289 0 -7
-27 -71 -60 -141 -33 -71 -60 -131 -60 -134 0 -2 38 -4 85 -4 77 0 86 2 99 23
8 12 98 217 199 455 l185 432 -89 0 c-78 0 -90 -2 -103 -21 -8 -12 -45 -106
-83 -210 -37 -104 -71 -189 -74 -189 -4 0 -10 11 -13 25 -13 51 -139 360 -154
378 -12 14 -32 17 -109 17 l-93 0 14 -32z"/>
<path d="M4133 3328 c3 -7 64 -150 137 -317 l132 -303 -65 -139 -66 -139 88 0
c60 0 92 4 99 13 10 11 382 882 382 893 0 2 -38 4 -83 4 -67 0 -87 -3 -99 -17
-9 -10 -49 -108 -89 -217 l-74 -199 -11 39 c-17 58 -133 345 -150 372 -13 20
-22 22 -110 22 -73 0 -95 -3 -91 -12z"/>
<path d="M2497 2524 c-11 -11 5 -34 24 -34 23 0 25 25 3 34 -19 7 -19 7 -27 0z"/>
<path d="M2743 1808 c37 -63 70 -63 120 -3 41 49 32 60 -24 26 -32 -20 -33
-20 -60 0 -15 10 -35 19 -44 19 -15 0 -14 -6 8 -42z"/>
<path d="M1395 1723 c-17 -145 -34 -245 -45 -258 -7 -9 -29 -15 -51 -15 -37 0
-39 -2 -39 -30 0 -29 2 -30 43 -30 53 0 99 27 119 71 14 29 48 247 48 302 0
13 -9 17 -34 17 l-35 0 -6 -57z"/>
<path d="M1651 1758 c-5 -13 -46 -99 -90 -191 -45 -93 -81 -170 -81 -173 0 -2
16 -4 36 -4 33 0 36 3 56 50 l21 51 70 -3 70 -3 11 -45 c10 -42 13 -45 47 -48
l37 -3 -24 98 c-12 54 -33 142 -45 196 l-22 97 -39 0 c-31 0 -40 -5 -47 -22z
m58 -132 c17 -88 18 -86 -40 -86 -38 0 -50 3 -46 13 27 71 63 144 68 139 3 -4
11 -34 18 -66z"/>
<path d="M1907 1623 c-10 -87 -21 -175 -24 -195 -6 -38 -5 -38 30 -38 35 0 36
1 42 48 12 91 16 102 35 102 12 0 28 -22 53 -75 36 -75 36 -75 76 -75 l40 0
-31 68 c-17 37 -35 72 -40 78 -5 7 6 26 32 52 35 35 40 45 40 85 0 34 -6 53
-24 74 -23 26 -30 28 -118 31 l-93 4 -18 -159z m171 85 c37 -37 -10 -118 -68
-118 -26 0 -30 3 -30 28 0 15 3 44 6 65 6 35 9 37 43 37 20 0 42 -5 49 -12z"/>
<path d="M2345 1763 c-77 -40 -118 -108 -119 -198 -2 -104 61 -175 155 -175
61 0 96 13 138 53 97 92 93 264 -9 318 -43 23 -124 24 -165 2z m118 -54 c33
-15 47 -49 47 -113 0 -118 -109 -189 -181 -117 -24 25 -29 37 -29 81 0 67 21
115 62 140 37 23 66 25 101 9z"/>
<path d="M2995 1748 c-3 -18 -12 -89 -20 -158 -8 -69 -18 -142 -21 -163 l-6
-38 39 3 38 3 9 83 c8 75 11 83 29 80 13 -2 35 -31 66 -85 45 -81 47 -83 84
-83 20 0 37 3 37 8 0 4 -24 50 -53 103 l-53 96 54 64 c29 35 62 76 73 92 l20
27 -39 0 c-38 0 -44 -4 -93 -67 -86 -112 -115 -129 -105 -65 3 20 8 58 12 85
l6 47 -35 0 c-33 0 -37 -3 -42 -32z"/>
<path d="M3330 1774 c0 -4 21 -56 46 -116 46 -108 46 -110 40 -189 l-7 -79 35
0 34 0 7 68 c8 72 21 102 112 237 l53 80 -26 3 c-40 5 -47 -1 -100 -87 -27
-45 -52 -81 -55 -81 -3 0 -13 26 -23 58 -31 97 -42 112 -81 112 -19 0 -35 -3
-35 -6z"/>
<path d="M2730 1733 c-28 -10 -59 -45 -65 -74 -9 -40 18 -84 69 -114 61 -35
80 -59 72 -89 -8 -33 -60 -51 -104 -35 -26 9 -32 16 -32 39 0 28 -15 48 -27
36 -13 -12 -21 -91 -10 -98 22 -14 103 -19 146 -9 56 12 91 47 98 97 6 47 -19
84 -78 114 -21 11 -46 32 -55 45 -16 24 -15 27 1 45 35 38 105 23 105 -22 0
-40 22 -31 32 13 12 54 6 59 -69 58 -37 0 -75 -3 -83 -6z"/>
</g>
</svg>
