<svg version="1" xmlns="http://www.w3.org/2000/svg" width="682.667" height="682.667" viewBox="0 0 512.000000 512.000000"><path d="M432.6 20.1c-.2.8-.8 3.2-1.2 5.4-.7 3.6-.8 3.7-1.2 1.2-.4-3.3-2.2-2.6-2.2.9 0 1.3-.4 3.2-.9 4.2-.6.9-1.3 3.4-1.6 5.6-.6 3.8-2 3.9-2.7.1-.2-1.1-2.1 6.9-4.2 17.8s-4 19.6-4.3 19.4c-.2-.3 1-7.5 2.6-16.1 3.3-16.6 3.6-19 2.2-18.2-.5.3-1.2 2.7-1.6 5.2-1 6.6-2.5 10.2-1.8 4.2.3-2.9.1-5.3-.5-6.1-.9-1-.8-3.4.3-9.1 1.9-9.7 1.9-10.5 0-8-.8 1-1.5 1.4-1.6.9 0-.6-1.4 5.1-3 12.5-1.5 7.4-2.6 11.8-2.4 9.8.2-2.1-.1-4-.6-4.3-.5-.4-.9-.4-.9-.2 0 1.9-6 32.1-9.6 48.1-23.9 107.6-59.7 199.3-106.8 274.3-8.9 14.1-22.4 33.5-27.1 38.8-1.9 2.2 0-1 4.3-7.1 29.3-41.5 56.6-93.5 79.7-151.9 22.1-55.9 42.9-127 55-188.3l4.9-24.5c.2-.9.1-1.7-.3-1.7s-2.8 10.8-5.5 24C389.9 115.8 370 185.4 350 237.5c-28.6 74.5-67.3 144.8-100.7 183.2-3.6 4-6.8 7.3-7.3 7.3-1 0-6-18-10-36-1.8-8.4-5.5-33.7-9.5-66.4-8.3-67-11.4-86.1-19.5-118.6-9.4-37.5-21.5-67.4-34.3-84.6-6.3-8.4-28.5-30.9-32.7-33-3.7-1.8-20.6-8.3-30.5-11.6-7-2.3-16.3-2.1-23.5.7-2.5.9-8.7 3.2-13.8 5-10.1 3.7-15.3 6.4-22.9 12.1-8 6.1-22.3 18.7-22.3 19.7 0 .9 1 .2 12.5-9.3 5.2-4.3 18-12 20-12 .3 0-1.7 2.7-4.6 6-2.9 3.3-5 6.3-4.6 6.6.3.3 3.2-1.8 6.4-4.8 7.3-6.7 12-10.1 13.4-9.6.6.2-.7 1.6-2.8 3-2.2 1.5-6.7 5-9.9 8-3.2 2.9-8.5 7-11.7 9.1-6.6 4.3-17 13.5-17.5 15.4-.5 1.9 1.2 1.6 3.3-.7 1-1.1 2.3-2 2.8-2 .6 0 2-.8 3.1-1.8 2.1-1.7 2.1-1.7.2.6-4.1 4.8-.3 3.2 6.6-2.9 4.9-4.2 6-4.9 3.4-2.1-5.6 5.9-3.9 6.1 2.7.3 6.4-5.6 10.8-9 15.2-11.7l3-1.8-2.7 3c-4.4 4.7-3.3 5.1 1.7.5 3.5-3.2 5.2-4.1 8.1-4.1h3.7l-4.9 3.8c-2.7 2.1-8.4 5.5-12.6 7.6-8.1 4-23.6 15.8-25.4 19.4-.6 1.2-1.8 3-2.7 4-1 1-1.7 2.3-1.7 2.9 0 .5-.9 1.8-2 2.8-1.1 1-2 2.3-2 2.8 0 .6.8.3 1.8-.6 1-1 2.3-1.7 2.8-1.7.6 0 2.8-1.8 4.9-4.1 5.8-5.9 16.8-12.9 23.7-15 3.3-1.1 6.5-1.9 7.1-1.9 2.2.1-3.7 4-11.1 7.5-4.1 1.9-10.2 5.4-13.5 7.9-6.6 4.7-14.8 12.6-13.1 12.6.6 0 2.6-1.6 4.5-3.6 4.3-4.5 14-11.5 19.9-14.3l4.5-2.2-3 2.3c-6.9 5.3-16.5 14-16.5 14.9 0 .6 2.6-1.2 5.7-4 9.3-8.3 7.8-5.8-2.8 4.6-5.4 5.3-9.7 9.9-9.4 10.1.3.3 1.6-.4 2.8-1.6 1.3-1.2 2.7-1.9 3-1.5.4.4 2.4-.9 4.3-2.8 2.4-2.2 3.8-3 4.1-2.1.3.7 2.9-1 7-4.7 3.5-3.3 7-5.8 7.7-5.5.7.3 2.7-.6 4.4-2 5.2-4.5 4.7-2.8-.7 2-2.9 2.6-5 4.9-4.7 5.2.3.2 2.9-1.7 5.7-4.2 5.7-5.1 8.9-7.2 8.9-5.8 0 1.1-6.4 6.9-14.2 13-5.5 4.3-18.8 18.3-18.8 19.8 0 .5 2.4-1.4 5.3-4.2 2.8-2.7 6.3-5.9 7.7-6.9l2.5-2-2.2 2.6c-3.8 4.2-2.6 4.4 1.9.3 6.5-5.9 11-9.2 15.4-11l3.9-1.6-2.9 3.1c-4 4.2-2.3 3.9 2.5-.4 2.2-1.9 4.7-3.5 5.7-3.5 1.1.1-1 2.6-6.1 7.4-8.7 8.2-10.4 11.1-2.6 4.4 9.5-8.1 15.1-11.8 18-11.8 3.8 0 12.7 3.4 16.8 6.4 10.7 7.9 23.5 33.5 32.6 65.1 10.1 35 13.9 56.9 23.5 133 5.2 41.8 7.9 59.9 10.6 71.5 4.8 20.7 9.5 35.9 14.7 47.7 3.6 8.3 4.8 10.1 7.8 11.7 2 1.1 4.4 3.5 5.4 5.3 1 1.8 2.6 3.5 3.6 3.8 1 .3 4.7 2.6 8.3 5 10.3 6.9 18.6 7 30.3.4 4.2-2.3 6.5-2.9 11.2-2.9 10.9 0 24.6-9 42.4-28 34-36.1 74.3-108.2 104.1-185.8 31.5-82.2 50.3-145.1 64.5-215.9 4-19.5 5.1-27.5 3.2-22.8-.5 1.1-1.2 4.5-1.6 7.5-.7 4.4-1 5-1.5 3-.5-1.8-1.1.2-2.4 7.5-4.7 26.3-20.2 92.5-20.5 87.7-.1-.8.8-4.9 1.9-9.2 4-15.8 20-92.4 20-96 0-.6-.4-.9-.8-.6-.5.3-1.4 4.3-2.1 9-.7 4.7-1.9 9.3-2.7 10.3-1.3 1.6-1.4 1.4-.9-2.7.9-7.1-1-2.5-2.4 5.7-.7 4-1.7 7.5-2.2 7.9-.5.3-.9 1.5-.9 2.6 0 1.2-.2 1.9-.6 1.6-.3-.3.6-6.6 2-13.9 1.4-7.4 2.8-16.7 3.1-20.7.3-4.1.7-7.8 1.1-8.3.3-.5 0-.9-.6-.9s-.8-1-.4-2.8c.4-1.8.3-2.4-.3-1.7-.6.5-2 6.4-3.2 13-3.4 18.4-8.4 41.6-8.8 41.1-.2-.2.7-6.3 2.1-13.5 2.4-12.2 3.4-24.1 1.7-19.8-.4 1-1.1 1.7-1.6 1.6-.6-.2-1.4 2.2-1.9 5.2s-1.1 4.9-1.3 4.3c-.2-.7 1-8.5 2.7-17.3 1.7-8.9 2.9-16.7 2.7-17.4-.5-1.4-.9.1-4.1 16.3-1.4 6.9-2.3 10.5-1.9 8 .9-6.4 1.2-25.3.3-24.3-.4.4-2.3 9.4-4.3 20-4.4 22.7-6.8 33.5-7.3 33-.2-.2.3-3.9 1.1-8.3 1.7-9 1.9-11.4.7-11.4-.5 0-1.8 4.8-3 10.7-1.2 6-2 9-1.7 6.8.2-2.2 0-4.9-.4-5.9-.5-1.3-1.3 1.4-2.5 8-1 5.4-2.1 10.1-2.5 10.4-.4.3-2.2 8.1-3.9 17.5-6.5 33.7-20.4 87.6-29.3 113.3-3.7 10.5-17.1 44.4-17.4 44-.2-.2 4.1-13.4 9.5-29.5 10.7-31.9 19.2-61.7 26.9-93.3 12.2-50 27-119.5 25.7-120.7-.3-.3-.8 0-1 .8zm-17.9 12.1c-.3.7-.5.2-.5-1.2s.2-1.9.5-1.3c.2.7.2 1.9 0 2.5zm15 1c-.3.7-.5.2-.5-1.2s.2-1.9.5-1.3c.2.7.2 1.9 0 2.5zm-16 4c-.3.8-.6.5-.6-.6-.1-1.1.2-1.7.5-1.3.3.3.4 1.2.1 1.9zm15 1.5c-.3 1-.5.4-.5-1.2 0-1.7.2-2.4.5-1.8.2.7.2 2.1 0 3zm-16 3.5c-.3.8-.6.5-.6-.6-.1-1.1.2-1.7.5-1.3.3.3.4 1.2.1 1.9zm15 2c-.3.7-.5.2-.5-1.2s.2-1.9.5-1.3c.2.7.2 1.9 0 2.5zm-16 3c-.3.8-.6.5-.6-.6-.1-1.1.2-1.7.5-1.3.3.3.4 1.2.1 1.9zm15 2c-.3.7-.5.2-.5-1.2s.2-1.9.5-1.3c.2.7.2 1.9 0 2.5zm-16 3c-.3.8-.6.5-.6-.6-.1-1.1.2-1.7.5-1.3.3.3.4 1.2.1 1.9zm15 2c-.3.7-.5.2-.5-1.2s.2-1.9.5-1.3c.2.7.2 1.9 0 2.5zm20 1c-.3.8-.6.5-.6-.6-.1-1.1.2-1.7.5-1.3.3.3.4 1.2.1 1.9zm-38 2c-.3.7-.5.2-.5-1.2s.2-1.9.5-1.3c.2.7.2 1.9 0 2.5zm33 0c-.3.7-.5.2-.5-1.2s.2-1.9.5-1.3c.2.7.2 1.9 0 2.5zm-16 2c-.3.7-.5.2-.5-1.2s.2-1.9.5-1.3c.2.7.2 1.9 0 2.5zm39 0c-.3.8-.6.5-.6-.6-.1-1.1.2-1.7.5-1.3.3.3.4 1.2.1 1.9zm-24 2c-.3.8-.6.5-.6-.6-.1-1.1.2-1.7.5-1.3.3.3.4 1.2.1 1.9zm-33 1c-.3.8-.6.5-.6-.6-.1-1.1.2-1.7.5-1.3.3.3.4 1.2.1 1.9zm2 0c-.3.8-.6.5-.6-.6-.1-1.1.2-1.7.5-1.3.3.3.4 1.2.1 1.9zm15 1c-.3.8-.6.5-.6-.6-.1-1.1.2-1.7.5-1.3.3.3.4 1.2.1 1.9zm39 1c-.3.8-.6.5-.6-.6-.1-1.1.2-1.7.5-1.3.3.3.4 1.2.1 1.9zm-24 2c-.3.8-.6.5-.6-.6-.1-1.1.2-1.7.5-1.3.3.3.4 1.2.1 1.9zm17 1c-.3.7-.5.2-.5-1.2s.2-1.9.5-1.3c.2.7.2 1.9 0 2.5zm-50 0c-.3.8-.6.5-.6-.6-.1-1.1.2-1.7.5-1.3.3.3.4 1.2.1 1.9zm17 1c-.3.7-.5.2-.5-1.2s.2-1.9.5-1.3c.2.7.2 1.9 0 2.5zm32 4c-.3.7-.5.2-.5-1.2s.2-1.9.5-1.3c.2.7.2 1.9 0 2.5zm-18 3c-.3.8-.6.5-.6-.6-.1-1.1.2-1.7.5-1.3.3.3.4 1.2.1 1.9zm17 3c-.3.7-.5.2-.5-1.2s.2-1.9.5-1.3c.2.7.2 1.9 0 2.5zm-40 1c-.3.7-.5.2-.5-1.2s.2-1.9.5-1.3c.2.7.2 1.9 0 2.5zm-307.7 0c1.9.6 3.8 1.3 4.2 1.7.4.3-6.8.6-16 .7-15.5.1-16.5 0-13.2-1.4 7.6-3.1 16.8-3.5 25-1zm343.7 1.5c-.3 1-.5.4-.5-1.2 0-1.7.2-2.4.5-1.8.2.7.2 2.1 0 3zm-23 2.5c-.3.7-.5.2-.5-1.2s.2-1.9.5-1.3c.2.7.2 1.9 0 2.5zm26 0c-.3.7-.5.2-.5-1.2s.2-1.9.5-1.3c.2.7.2 1.9 0 2.5zm-43 0c-.3.8-.6.5-.6-.6-.1-1.1.2-1.7.5-1.3.3.3.4 1.2.1 1.9zm22.8 21.4c-6.9 31.2-22 88.2-23.1 87.1-.2-.2 2-9.5 4.9-20.8 2.9-11.2 9.1-35.8 13.8-54.6 4.6-18.7 8.5-33.8 8.7-33.3.2.4-1.8 10.1-4.3 21.6zM91.3 83.7c-.7.2-1.9.2-2.5 0-.7-.3-.2-.5 1.2-.5s1.9.2 1.3.5zm21.2.3c1.6.7 1.4.9-1.5.9-1.9 0-4.2-.4-5-.9-1.1-.7-.8-1 1.5-.9 1.7 0 3.9.4 5 .9zm330.2 1.2c-.3.8-.6.5-.6-.6-.1-1.1.2-1.7.5-1.3.3.3.4 1.2.1 1.9zm-357.4-.5c-.7.2-2.1.2-3 0-1-.3-.4-.5 1.2-.5 1.7 0 2.4.2 1.8.5zm363.4 1.5c-.3.8-.6.5-.6-.6-.1-1.1.2-1.7.5-1.3.3.3.4 1.2.1 1.9zm-23 2c-.3.7-.5.2-.5-1.2s.2-1.9.5-1.3c.2.7.2 1.9 0 2.5zm25.2 3.7c-.6 3.4-1.4 6-1.6 5.7-.2-.2.1-3.2.8-6.5.6-3.4 1.4-6 1.6-5.7.2.2-.1 3.2-.8 6.5zM76 88c-1.9 1.1-4.4 1.9-5.5 1.9-1.5 0-1.1-.5 1.5-1.9 1.9-1.1 4.4-1.9 5.5-1.9 1.5 0 1.1.5-1.5 1.9zm24.2-.9c-1.5.6-3 .5-4-.1-1.3-.7-.8-.9 2.3-.9 3.5 0 3.7.1 1.7 1zm20.9 1l2.4 2.1-2.5-.6c-1.4-.3-3.4-.6-4.6-.6-1.1 0-2.9-.7-4-1.5-1.8-1.3-1.6-1.4 2.2-1.5 2.8 0 4.9.7 6.5 2.1zm10.4 2.4c2.1 1.7 2.4 2.3 1 1.8-2-.7-9.5-5.3-9.5-5.9 0-.9 5.9 2 8.5 4.1zM69 87.4c0 .2-.7.7-1.6 1-.8.3-1.2.2-.9-.4.6-1 2.5-1.4 2.5-.6zm25 .6c0 .5-.4 1-.9 1-.6 0-1.3-.5-1.6-1-.3-.6.1-1 .9-1 .9 0 1.6.4 1.6 1zm-31.6 1.1c-.8 1.4-7.4 4.2-8.2 3.5-.2-.3 1.5-1.4 3.9-2.5 5.4-2.4 5.2-2.3 4.3-1zm16.2.4c-1.1.8-2.7 1.5-3.5 1.5-1-.1-.7-.6.9-1.5 3.3-1.9 5-1.8 2.6 0zM85 89c-2 1.3-3.3 1.3-2.5 0 .3-.6 1.4-1 2.3-1 1.5 0 1.5.2.2 1zm356.7 1.2c-.3.8-.6.5-.6-.6-.1-1.1.2-1.7.5-1.3.3.3.4 1.2.1 1.9zm-332.2-.3c-2 1.8-6.2 2.1-7.5.6-1.1-1.3-.6-1.5 3.6-1.5 2.8 0 4.4.4 3.9.9zm36 9.2c6.1 6.3 3.1 4.5-5.6-3.4-4.6-4.3-5.4-5.3-2.9-3.8 1.9 1.1 5.8 4.3 8.5 7.2zm279.2-5.9c-.3.7-.5.2-.5-1.2s.2-1.9.5-1.3c.2.7.2 1.9 0 2.5zm23-1c-.3.8-.6.5-.6-.6-.1-1.1.2-1.7.5-1.3.3.3.4 1.2.1 1.9zM85 92c-.8.5-1.9 1-2.5 1-.5 0-.3-.5.5-1s2-1 2.5-1c.6 0 .3.5-.5 1zm6.7.5c-1.1.7-2.6 1.1-3.5.8-1.3-.6-1.3-.8.4-1.4 1-.4 2.6-.8 3.4-.8 1.2 0 1.1.3-.3 1.4zm25.2 1.6c4.8 3.4 4.9 4.4.5 3-1.6-.6-4.9-1.5-7.3-2.1-5.1-1.3-4.4-2.6 2-3.9.3 0 2.5 1.3 4.8 3zm10.3 2.6c.8 1 .6 1.3-.9 1.3-1 0-3.5-1.6-5.4-3.6l-3.4-3.7 4.3 2.4c2.4 1.3 4.8 2.9 5.4 3.6zm-.5-3.1l2.8 2.6-3.5-2.3c-4.6-2.9-4.5-2.9-3.2-2.9.6 0 2.4 1.2 3.9 2.6zm-53.8-1.2c-.9.8-8.9 4.6-8.9 4.2 0-.8 6.5-4.6 7.9-4.6.8 0 1.2.2 1 .4zm24.9 1.3c.2.8-.5 1.3-1.7 1.3-2.1 0-3.5-1.3-2.4-2.4 1-1 3.6-.3 4.1 1.1zM78 93.4c0 .2-.9.6-2 .9-1.1.3-1.8.1-1.4-.4.5-.9 3.4-1.3 3.4-.5zm54 2.1c1.3 1.4 1.9 2.5 1.3 2.5-.6 0-1.8-1.1-2.7-2.5-.9-1.4-1.5-2.5-1.3-2.5.2 0 1.4 1.1 2.7 2.5zm8.4 3.4c1.1 1.7-3.3-.1-5.1-2.1-1.8-2.1-1.8-2.1 1.4-.4 1.7.9 3.4 2 3.7 2.5zm266.3-1.7c-.3.8-.6.5-.6-.6-.1-1.1.2-1.7.5-1.3.3.3.4 1.2.1 1.9zm17 0c-.3.8-.6.5-.6-.6-.1-1.1.2-1.7.5-1.3.3.3.4 1.2.1 1.9zM102.5 97c.3.6-.1.7-.9.4-1.8-.7-2.1-1.4-.7-1.4.6 0 1.3.4 1.6 1zm6.5 1.5c1.7 1.8 2 2.5.8 2.5-.8 0-2.5-1.1-3.8-2.5-1.7-1.8-2-2.5-.8-2.5.8 0 2.5 1.1 3.8 2.5zm-37-1.1c0 .2-.7.7-1.6 1-.8.3-1.2.2-.9-.4.6-1 2.5-1.4 2.5-.6zm44.1 1.4c-.7.2-1.8-.1-2.3-.6-.8-.8-.4-.9 1.3-.5 1.3.4 1.8.8 1 1.1zM445 118.1c-2.2 9.5-4.3 17.5-4.7 17.8-.3.3-.3-.5 0-1.9.4-1.4 2.3-9.9 4.4-18.9 2-9 3.9-15.9 4.1-15.3.2.6-1.5 8.8-3.8 18.3zM132 101c1.1.6 2.4 2 3 3.1l1.1 2-4-2c-2.2-1.2-4.2-2.5-4.6-3.1-.8-1.3 2.1-1.3 4.5 0zm290.7 1.2c-.3.8-.6.5-.6-.6-.1-1.1.2-1.7.5-1.3.3.3.4 1.2.1 1.9zm-278.6.8l2.4 2.1-3.2-1.6c-3.2-1.5-4.2-2.5-2.4-2.5.5 0 1.9.9 3.2 2zm-48.8.7c1.8.9 2.7 1.8 2 2-.6.2-2.9-.5-5-1.6-2.3-1.2-3.1-2-2-2.1 1 0 3.2.7 5 1.7zm23.3 1c-.8.8-3.6-.5-3.6-1.7 0-.7.6-.7 2.1 0 1.1.7 1.8 1.4 1.5 1.7zm9.4.9c1.8 1.8 2.1 2.4.9 2.4-3 0-7.4-2-8.7-4-1.1-1.8-1-1.9 2.1-1.4 1.7.4 4.3 1.7 5.7 3zm12.2-.9c1.3 1.6 3.5 4.4 4.9 6.3 3.1 4.6.2 2.3-5.2-4.1-4.3-5.2-4.1-6.9.3-2.2zm-50.3.4c3.2 1.1 4 2.4 1.9 3.2-1.7.5-7.9-2.4-7.2-3.5.7-1.1 1.5-1 5.3.3zM78 108.5c-1.4 1.3-4.1 2.7-6 3.1l-3.5.6 3.1-2c1.8-1.1 3.5-2.5 3.8-3.1.4-.6 1.7-1.1 2.9-1.1 2.1 0 2.1 0-.3 2.5zm58.1-.4c1.9 1.6 2 1.8.4 1-3.4-1.7-5.1-3.1-3.9-3.1.7 0 2.2.9 3.5 2.1zm13.1 1.6c.9 1 3 4.2 4.8 7.2l3.1 5.4-3.3-2.8c-3-2.5-9.8-11.6-9.8-13 0-.9 3.4 1.1 5.2 3.2zm-63.8-1.6c3.6 1.7 2.2 2.9-3.1 2.9-4.5 0-4.6 0-2.8-2 2.1-2.3 2.6-2.4 5.9-.9zm35.3-.5c-.3.3-1.2.4-1.9.1-.8-.3-.5-.6.6-.6 1.1-.1 1.7.2 1.3.5zm36.4 5.1c4.2 6 2.4 4.9-2.1-1.3-1.8-2.6-2.8-4.4-2.2-4 .6.4 2.6 2.8 4.3 5.3zM98 109.5c0 .2-1 .9-2.2 1.5-2.2 1.1-2.2 1-.4-.4 2.1-1.7 2.6-1.9 2.6-1.1zm33.5.5c.3.6-.1.7-.9.4-1.8-.7-2.1-1.4-.7-1.4.6 0 1.3.4 1.6 1zm6.5 4.1c2.1 2.7 2.6 3.8 1.4 3.1-1.7-.9-6.1-7.2-5.1-7.2.2 0 1.9 1.8 3.7 4.1zm4.7 2.3l1.5 3.1-3.1-3.5c-3.2-3.7-4.2-6.1-1.5-3.9.8.7 2.2 2.6 3.1 4.3zm-91.7-4c0 .2-.8 1-1.7 1.7-1.6 1.3-1.7 1.2-.4-.4 1.3-1.6 2.1-2.1 2.1-1.3zm51.5 1.7c-.8 1.2-4.5 1.2-4.5 0 0-1 3-2 4.3-1.4.4.3.5.9.2 1.4zM80 115c-1.4 1.1-3.9 2-5.6 2-1.7 0-4.7.2-6.5.5l-3.4.6 3-1.5c4.8-2.2 8.8-3.4 12-3.5l3-.1-2.5 2zm36.1-.3c1.3 1.6 1.2 1.7-.3.4-1-.7-1.8-1.5-1.8-1.7 0-.8.8-.3 2.1 1.3zm9.2-.5c2.2 1.1 4.6 3.7 4.7 4.9.1 1.8-4.9-.7-6.4-3.2-1.9-3.2-1.6-3.5 1.7-1.7zm-57.3.2c0 .2-.7.7-1.6 1-.8.3-1.2.2-.9-.4.6-1 2.5-1.4 2.5-.6zm19 .6c-.8.5-1.9 1-2.5 1-.5 0-.3-.5.5-1s2-1 2.5-1c.6 0 .3.5-.5 1zm62.4 8.2c2 3.6 2.4 4.8 1.2 3.9-1-.8-3.1-4.2-4.7-7.5-3.4-6.9-.9-4.3 3.5 3.6zm-12.8-5.1c.4.8.1.8-1.4 0-1.2-.6-2.4-1.6-2.8-2.2-.4-.8-.1-.8 1.4 0 1.2.6 2.4 1.6 2.8 2.2zm28.8 12.1c4.1 7.7 3.9 7.9-1 1.3-3.1-4.1-9.4-14.9-9.4-16.1 0-1.6 6.8 8.2 10.4 14.8zM62 116.4c0 .2-2.4 1.9-5.2 3.6-2.9 1.8-7.8 4.8-10.8 6.7l-5.5 3.4L44 127c5.3-4.8 18-12.2 18-10.6zm49.7.2c-.3.3-1.2.4-1.9.1-.8-.3-.5-.6.6-.6 1.1-.1 1.7.2 1.3.5zm61.4 15.1c15.7 26 29.7 70.9 38.8 124.8 1.1 6.6 5.2 37.2 9.1 68.1 7 56.2 9.5 70.8 16.1 93.7 1.8 5.9 2.9 11 2.6 11.4-1.8 1.7-3.7-1.6-6.5-11.4-6-20.6-8.1-33-15.2-89-7.4-59.5-11.4-84.3-17.9-111.9-8.7-37.3-17.5-61.4-32.9-90.4-5.7-10.6-5.9-11.2-2.6-7.5 2 2.2 5.8 7.7 8.5 12.2zm263.6-13.5c-.3.8-.6.5-.6-.6-.1-1.1.2-1.7.5-1.3.3.3.4 1.2.1 1.9zm-301.6 2.4c2.1 2.4 2.2 2.6.3 1.6-2.5-1.3-5-4.2-3.7-4.2.5 0 2 1.2 3.4 2.6zm19.6 7.9c1.9 3.8 3.1 6.5 2.6 6-.6-.6-2.9-4.6-5.2-9-2.3-4.4-3.4-7.1-2.5-6 .8 1.1 3.1 5.1 5.1 9zM73.5 120c-.3.5-2.1 1-3.8 1-3 0-10 1.6-15.2 3.4-1.1.4-.6-.1 1-1 6.1-3.6 19.7-6.1 18-3.4zm23.5 1.7c-1.8.7-3.5 1.1-3.7.9-.8-.7 5.1-3.5 6.1-2.9.5.3-.6 1.2-2.4 2zm64.9 10.5c1.4 3.9 1.4 3.9-4.3-4.7l-4.7-7 4 4.3c2.1 2.3 4.4 5.7 5 7.4zm-53.2-9.6c-.3.3-1.2.4-1.9.1-.8-.3-.5-.6.6-.6 1.1-.1 1.7.2 1.3.5zm36.4 3.5c2.3 2.9 2.7 3.8 1.2 2.9-1.9-1.2-6-7-4.9-7 .2 0 1.9 1.9 3.7 4.1zm-38.7.4c1.6 2.4 1.5 2.5-.2 2.5-1.1 0-3.4-.5-5.2-1.2-3.1-1-3.2-1.2-1.5-2.5 2.8-2 5.1-1.6 6.9 1.2zm7.2.6c1.6 1.8 1.6 1.9-.1 1.9-1.9 0-5.5-2.7-5.5-4.1 0-1.3 3.8.2 5.6 2.2zm23.1 3.3c1.5 3.1 1.5 3.1-2.6-.9-2.2-2.1-4.1-4.3-4.1-4.7 0-1.7 5.2 2.6 6.7 5.6zm5-2.2c1 1.3 2.5 4.8 2 4.8-.2 0-2.3-2.1-4.7-4.6-4.2-4.3-4.3-4.5-1.4-3.1 1.7.9 3.5 2.2 4.1 2.9zM70.5 126c-.3.5-1.1 1-1.6 1-.6 0-.7-.5-.4-1 .3-.6 1.1-1 1.6-1 .6 0 .7.4.4 1zm16.8 4.7c-.7.2-1.9.2-2.5 0-.7-.3-.2-.5 1.2-.5s1.9.2 1.3.5zm7.7.3c.8.5 1.1 1.2.7 1.6-.4.4-1.5 0-2.4-.9-1.8-1.8-.8-2.3 1.7-.7zm20.7-.4c-.3.3-1.2.4-1.9.1-.8-.3-.5-.6.6-.6 1.1-.1 1.7.2 1.3.5zm50.3 14.9c3.2 6.6 6.1 13.1 6.5 14.5.7 3-7.4-12.3-12.2-23-5-11.3-1-5.2 5.7 8.5zm-73.3-11.8c-.9.8-4.8-.8-4.2-1.8.4-.5 1.4-.5 2.6.2 1.2.6 1.8 1.3 1.6 1.6zm340-.5c-.3.8-.6.5-.6-.6-.1-1.1.2-1.7.5-1.3.3.3.4 1.2.1 1.9zm-372.2 0c-1.1.6-3.2 2-4.7 3-1.6 1.1-2.8 1.7-2.8 1.4 0-.8 7.3-5.6 8.5-5.6.5 0 .1.6-1 1.2zm24.2-.6c-.3.3-1.2.4-1.9.1-.8-.3-.5-.6.6-.6 1.1-.1 1.7.2 1.3.5zm33.8 2.5c2.2 4.1 1.3 4.8-1.4 1.1-2.3-3.3-2.6-4.2-1.1-4.2.5 0 1.7 1.4 2.5 3.1zm26 3c5 6.8 6.1 10.2 1.6 4.9-3.2-3.8-7.6-11-6.7-11 .3 0 2.6 2.7 5.1 6.1zm-17-.1c2.7 5.4 1.9 6.8-1.3 2.2-3.7-5.2-4.4-7.2-2.8-7.2.9 0 2.7 2.2 4.1 5zM66 134.5c0 .2-1 .9-2.2 1.5-2.2 1.1-2.2 1-.4-.4 2.1-1.7 2.6-1.9 2.6-1.1zm16.5.5c-.3.5-1.8 1-3.3 1-2.1 0-2.4-.2-1.2-1 2-1.3 5.3-1.3 4.5 0zm88 8.5c8 14.1 15.6 37.3 22.9 70 3.6 16.4 9.7 51.2 9.5 54.9 0 1.2-1.2-3.9-2.5-11.2-8.3-45.9-16.1-73.4-32.2-113.6-4.6-11.3-4.1-11.3 2.3-.1zm-80.6-8.1c-1.1.9-6.9 1.5-6.4.6.3-.6 2-1 3.7-1 1.7 0 2.9.2 2.7.4zm16.6.7c1.1 1.7-.1 2.1-1.5.4-.8-.9-.8-1.5-.2-1.5.6 0 1.4.5 1.7 1.1zm-29.1 1.8c.3.5-.9 1.4-2.7 2l-3.2 1.1 2.4-2c2.7-2.3 2.8-2.3 3.5-1.1zm15.6.1c-.8.5-2.4 1-3.5 1-1.7 0-1.7-.2-.5-1 .8-.5 2.4-1 3.5-1 1.7 0 1.7.2.5 1zm346.7 1.2c-.3.8-.6.5-.6-.6-.1-1.1.2-1.7.5-1.3.3.3.4 1.2.1 1.9zm-9 1c-.3.8-.6.5-.6-.6-.1-1.1.2-1.7.5-1.3.3.3.4 1.2.1 1.9zm-378.3.9c-1 1.1-2.8 2.5-3.9 3.1-1.1.6-.4-.4 1.5-2 4.1-3.6 5.1-4.1 2.4-1.1zm29.6-.6c-3.3 1.9-4.6 1.9-3 0 .7-.8 2.2-1.5 3.4-1.5 2 .1 2 .2-.4 1.5zm13.3.2c-.7.2-1.9.2-2.5 0-.7-.3-.2-.5 1.2-.5s1.9.2 1.3.5zm50.7 9.8c1.2 2.7 1.7 4.5 1.1 4-1.7-1.7-8.1-12.8-8.1-13.9.1-2 4.9 4.8 7 9.9zm-60-7.6c-1.3 1.1-3.6 2.2-5 2.4-2.5.5-2.5.5.5-1.9 1.7-1.3 3.9-2.4 5-2.4 1.8 0 1.8.2-.5 1.9zm17.7 4.1c6.9 8.1 6.9 8.6 0 2.2-3.7-3.4-7.3-6.2-8-6.2-.8 0-.7-.4.3-1 1.9-1.2 3.1-.4 7.7 5zm335-3.8c-.3.8-.6.5-.6-.6-.1-1.1.2-1.7.5-1.3.3.3.4 1.2.1 1.9zm-364.9-.1c-.2.6-5.1 4-10.8 7.5-11.1 6.8-9 4 3-4.1 6.7-4.5 8.4-5.3 7.8-3.4zm17.2-.7c0 .2-.7.7-1.6 1-.8.3-1.2.2-.9-.4.6-1 2.5-1.4 2.5-.6zm34.5 2.6c.9 1.6 1.3 3 1.1 3-.3 0-1.2-1.4-2.1-3-.9-1.7-1.3-3-1.1-3 .3 0 1.2 1.3 2.1 3zm-27.7 1c4.8 3.5 5.5 4.7 1.4 2.6-1.5-.8-4.5-1.8-6.7-2.2-3.5-.6-3.7-.8-2-2 2.5-1.9 2.6-1.8 7.3 1.6zm-20.3-1.1c-.6.5-2.1 1.2-3.5 1.5l-2.5.7 2.5-1.5c2.8-1.7 5-2.1 3.5-.7zm27.6.8c1.3 1.6 1.2 1.7-.3.4-1-.7-1.8-1.5-1.8-1.7 0-.8.8-.3 2.1 1.3zm12.2 13.4c4.6 9 2.6 6.7-5.4-6.1-5.3-8.4-5.5-9-2.2-5.4 2.1 2.3 5.5 7.5 7.6 11.5zm-1.2-9.6l1 2-1.6-2c-.9-1.1-2.1-2.9-2.6-4l-1-2 1.6 2c.9 1.1 2.1 2.9 2.6 4zm19.3 5.1c2 4.8 3.5 8.8 3.4 9-.2.1-2.6-4.2-5.4-9.6-3.2-6.4-4.4-9.5-3.3-8.9.9.4 3.3 4.8 5.3 9.5zm-12.9-7c.9 1.5 1.2 2.3.6 2-1.1-.7-3.5-4.6-2.8-4.6.3 0 1.2 1.2 2.2 2.6zm306.2-.4c-.3.8-.6.5-.6-.6-.1-1.1.2-1.7.5-1.3.3.3.4 1.2.1 1.9zm9 0c-.3.8-.6.5-.6-.6-.1-1.1.2-1.7.5-1.3.3.3.4 1.2.1 1.9zm-282 3.5c3.1 5 5.1 9.6 3.5 7.8-1.4-1.5-7.4-12.5-6.9-12.5.3 0 1.8 2.1 3.4 4.7zm278-2.5c-.3.8-.6.5-.6-.6-.1-1.1.2-1.7.5-1.3.3.3.4 1.2.1 1.9zm-385.7.1c0 .2-1 1.2-2.2 2.3l-2.3 1.9 1.9-2.3c1.8-2.1 2.6-2.7 2.6-1.9zm76.3 10.5c4.5 9.6 2.8 8.2-2.5-2.1-2.6-5.1-3.8-8.1-2.6-6.7 1.1 1.4 3.4 5.3 5.1 8.8zm305.4-7.6c-.3.8-.6.5-.6-.6-.1-1.1.2-1.7.5-1.3.3.3.4 1.2.1 1.9zm-1.6 18.6c-6.9 25.8-13.9 48.5-20.9 68.2-8.1 22.3-16.3 43.2-16.8 42.7-.2-.2 2.1-6.9 5.2-14.8 10.7-27.5 31.8-93.8 35.9-112.7.4-1.8.9-3.1 1.2-2.9.2.3-1.8 9-4.6 19.5zm-287.3-11.5c3.3 8.8 2.6 9.3-.8.7-1.7-4.1-3-7.7-3-8 0-1.4 2 2.3 3.8 7.3zm242.7 9.9c-23.9 83.9-61.1 167.5-100.9 227.3-5.2 7.7-10.6 15.1-12.1 16.5-1.5 1.4.7-2.5 4.9-8.7 27.5-40.5 51.3-86.9 75.4-147.3 13.6-34.1 31.2-84.2 35.3-100.5.6-2.5 1.4-4.4 1.6-4.1.3.2-1.6 7.8-4.2 16.8zM40 152.3c0 .2-1.2 1.4-2.7 2.8l-2.8 2.4 2.4-2.8c2.3-2.5 3.1-3.2 3.1-2.4zm386.7 1.9c-.3.8-.6.5-.6-.6-.1-1.1.2-1.7.5-1.3.3.3.4 1.2.1 1.9zm-272.3 10c5.3 11.4 6.8 16.5 2.5 8.3-3.5-6.6-8-17.5-7.3-17.5.3 0 2.5 4.2 4.8 9.2zm273.3-6c-.3.8-.6.5-.6-.6-.1-1.1.2-1.7.5-1.3.3.3.4 1.2.1 1.9zm-3 3c-.3.8-.6.5-.6-.6-.1-1.1.2-1.7.5-1.3.3.3.4 1.2.1 1.9zm-251.8 5.3c0 .5-.6-.1-1.4-1.5-.8-1.4-1.4-3-1.4-3.5 0-.6.6.1 1.4 1.5.8 1.4 1.4 2.9 1.4 3.5zm252.5-.1c-.3 1.5-.8 2.5-1.1 2.3-.2-.3-.1-1.7.3-3.1.3-1.5.8-2.5 1.1-2.3.2.3.1 1.7-.3 3.1zm-289.8 2.2c.8 2 1.3 3.8 1.1 4-.2.2-1.1-1.4-2-3.6-1.9-5-1.2-5.3.9-.4zm20.5 12.3c4.4 13 3.4 12.1-1.6-1.4-2.5-6.6-4.5-12.2-4.4-12.5 0-1.5 3.5 6.5 6 13.9zm6.3-10.2c1.7 3.4 5.6 15.2 5.5 16.7 0 .6-.6-.5-1.4-2.4-.7-1.9-2.5-6.5-3.9-10.3-2.6-6.9-2.8-8.9-.2-4zm259.3.5c-.3.8-.6.5-.6-.6-.1-1.1.2-1.7.5-1.3.3.3.4 1.2.1 1.9zm-287.2 6.3c1.6 4.2 2.5 7.8 2.2 8.1-.3.3-1.5-2.5-2.7-6.3-1.3-3.7-2.5-7.4-2.8-8.1-.2-.6-.2-1.2.1-1.2.3 0 1.7 3.4 3.2 7.5zm274 10.1c-8.8 31.8-21.1 69.3-29.7 90.2-2.8 6.8-5.2 12.1-5.4 12-.1-.2 2.2-6.9 5.2-14.8 6.7-17.8 19-55.3 27.4-83.7 3.5-11.7 6.5-21.1 6.7-20.9.2.2-1.7 7.9-4.2 17.2zm9.5 3.1c-12.7 40.9-36.1 100.6-49.3 125.8-4.3 8.2-3.1 4.7 3.2-9.2 13.6-29.9 39.5-98.1 48.1-126.6 1.8-5.9 3.5-10.5 3.7-10.3.3.2-2.3 9.4-5.7 20.3zm-291-11.5c3.2 7.3 9.2 23.9 8.7 24.4-.2.2-2.4-4.9-4.9-11.4-2.5-6.4-5.3-13.4-6.2-15.5-2.7-6.3-.7-4.1 2.4 2.5zm26.5 13.3c4.5 15.9 5.7 21.5 2.9 14-1.4-3.7-8.4-28.9-8.4-30.2 0-2.2 1.5 2.4 5.5 16.2zm249.6.1c-6.2 18.8-13.2 38.6-13.6 38.2-.2-.2 3.8-12.6 8.8-27.5 5.1-15 9.3-26.9 9.5-26.4.1.4-2 7.5-4.7 15.7zM161 186.5c0 .5-.5.3-1-.5s-1-2-1-2.5c0-.6.5-.3 1 .5s1 1.9 1 2.5zm20.9 13c4.1 14.1 9.1 34.7 9 37.5 0 1.8-7.7-24.6-11.9-41.2-5-19.4-3.3-17.3 2.9 3.7zm-17.4-2.9c.4 2.5.3 2.4-.8-.6-.8-1.9-1.7-4.6-2-6-.5-1.9-.3-1.7.8.6.7 1.7 1.6 4.4 2 6zm-15.2 3.4c.6 3 .4 2.9-.8-.9-2.2-6.6-2.6-9-1.1-5.6.7 1.6 1.6 4.6 1.9 6.5zm259.1-3.6c-.3 1.5-.8 2.5-1.1 2.3-.2-.3-.1-1.7.3-3.1.3-1.5.8-2.5 1.1-2.3.2.3.1 1.7-.3 3.1zm-213 11.1c8.3 30.1 12.2 52.8 21.1 124.4 3.6 28.8 7.9 58.6 9.5 66.4 3.2 15.1 3.3 15.3 2.5 14.5-.3-.3-2.8-9.4-5.5-20.3-4.6-18-5.6-24.7-12-75.9-3.9-30.8-8.2-62.9-9.6-71.1-2.1-12.8-7.9-41.2-10.1-49.5-.3-1.4-.3-2.3 0-2 .3.3 2.1 6.3 4.1 13.5zm-37.7-9.3c-.3.8-.6.5-.6-.6-.1-1.1.2-1.7.5-1.3.3.3.4 1.2.1 1.9zm-9.8 15.7c1.8 6.2 3.1 11.5 2.9 11.7-.5.4-8.8-26.6-8.8-28.1.1-2 2.7 5.3 5.9 16.4zm31.6 7.6c3.9 15.1 8.9 39.4 8.2 40.1-.2.3-1-2.4-1.7-5.8-.6-3.5-4.1-17.7-7.6-31.7-3.5-13.9-6.4-25.8-6.3-26.5.2-1.7 3.7 9.7 7.4 23.9zM159.9 205c0 .9-.4.8-.9-.5-.5-1.1-.9-2.7-.9-3.5 0-.9.4-.8.9.5.5 1.1.9 2.7.9 3.5zm-9.2 1.2c-.3.8-.6.5-.6-.6-.1-1.1.2-1.7.5-1.3.3.3.4 1.2.1 1.9zm11.1 7.3c0 1.6-.2 1.5-.8-.5-.4-1.4-.8-3.4-.8-4.5 0-1.6.2-1.5.8.5.4 1.4.8 3.4.8 4.5zm3.9-4.3c-.3.8-.6.5-.6-.6-.1-1.1.2-1.7.5-1.3.3.3.4 1.2.1 1.9zm-14 1c-.3.8-.6.5-.6-.6-.1-1.1.2-1.7.5-1.3.3.3.4 1.2.1 1.9zm17.8 11.8c2.7 10.6 6.6 30.9 6.4 33.9 0 1.5-9.9-42.3-9.9-44.3 0-2.5 1.1.8 3.5 10.4zm-6.8-3.8c-.3.8-.6.5-.6-.6-.1-1.1.2-1.7.5-1.3.3.3.4 1.2.1 1.9zm11 1c-.3.8-.6.5-.6-.6-.1-1.1.2-1.7.5-1.3.3.3.4 1.2.1 1.9zm-8.9 7.3c0 1.6-.2 1.5-.8-.5-.4-1.4-.8-3.4-.8-4.5 0-1.6.2-1.5.8.5.4 1.4.8 3.4.8 4.5zm9.9-3.3c-.3.8-.6.5-.6-.6-.1-1.1.2-1.7.5-1.3.3.3.4 1.2.1 1.9zm1 4c-.3.8-.6.5-.6-.6-.1-1.1.2-1.7.5-1.3.3.3.4 1.2.1 1.9zm198.4 13.9c-6.1 17.7-12.8 35.7-18.7 50.3-6.3 15.3-17.6 40.7-18 40.3-.2-.2 2.3-6.4 5.5-13.8 6.6-15.1 19.8-48.9 29.1-74.6 3.5-9.5 6.5-17.1 6.7-17 .2.2-1.9 6.9-4.6 14.8zm-222.4-11.9c-.3.8-.6.5-.6-.6-.1-1.1.2-1.7.5-1.3.3.3.4 1.2.1 1.9zm14 3c-.3.7-.5.2-.5-1.2s.2-1.9.5-1.3c.2.7.2 1.9 0 2.5zm11-1c-.3.8-.6.5-.6-.6-.1-1.1.2-1.7.5-1.3.3.3.4 1.2.1 1.9zm16 3c-.3.8-.6.5-.6-.6-.1-1.1.2-1.7.5-1.3.3.3.4 1.2.1 1.9zm-34 1c-.3.8-.6.5-.6-.6-.1-1.1.2-1.7.5-1.3.3.3.4 1.2.1 1.9zm-8 1c-.3.8-.6.5-.6-.6-.1-1.1.2-1.7.5-1.3.3.3.4 1.2.1 1.9zm16 1c-.3.7-.5.2-.5-1.2s.2-1.9.5-1.3c.2.7.2 1.9 0 2.5zm27 2c-.3.7-.5.2-.5-1.2s.2-1.9.5-1.3c.2.7.2 1.9 0 2.5zm-37.8 15.5c4.5 18.4 6.2 29.1 13.1 85.8 2.8 22.5 6.2 47.4 7.6 55.3 1.4 7.9 2.4 15.1 2.2 16-.2.9-2-5.1-4.1-13.3-2.7-11.5-4.9-25.7-9.2-60.5-3.1-25-7.6-57.4-10.1-72-2.4-14.5-4.4-26.9-4.4-27.4 0-2.7 1.3 1.6 4.9 16.1zm3.8-13.5c-.3.7-.5.2-.5-1.2s.2-1.9.5-1.3c.2.7.2 1.9 0 2.5zm8 0c-.3.8-.6.5-.6-.6-.1-1.1.2-1.7.5-1.3.3.3.4 1.2.1 1.9zm2 0c-.3.8-.6.5-.6-.6-.1-1.1.2-1.7.5-1.3.3.3.4 1.2.1 1.9zm29.8 24.3c2.2 11.9 16.7 122 16.4 125-.3 4-2.6-11.5-7.9-53.5-3.3-26.7-7.6-58-9.6-69.5-1.9-11.6-3.7-22.4-3.9-24-1-6.6 2.6 8.9 5 22zm-21.8-21.3c-.3.8-.6.5-.6-.6-.1-1.1.2-1.7.5-1.3.3.3.4 1.2.1 1.9zm-17 1c-.3.8-.6.5-.6-.6-.1-1.1.2-1.7.5-1.3.3.3.4 1.2.1 1.9zm10 2c-.3.7-.5.2-.5-1.2s.2-1.9.5-1.3c.2.7.2 1.9 0 2.5zm11.4 19.5c1.1 7.9 1.9 14.8 1.7 15.4-.3 1-4.1-21.8-5.3-32.6l-.5-4 1 3.5c.5 1.9 1.9 9.9 3.1 17.7zm-20.4-16.5c-.3.8-.6.5-.6-.6-.1-1.1.2-1.7.5-1.3.3.3.4 1.2.1 1.9zm10 3c-.3.7-.5.2-.5-1.2s.2-1.9.5-1.3c.2.7.2 1.9 0 2.5zm1 5.5c-.3 1-.5.4-.5-1.2 0-1.7.2-2.4.5-1.8.2.7.2 2.1 0 3zm208.4 1c-1.2 2-1.4 1.4-.5-1.2.4-.9.9-1.4 1.1-1.1.3.2 0 1.3-.6 2.3zm-204.4 1.5c-.3.8-.6.5-.6-.6-.1-1.1.2-1.7.5-1.3.3.3.4 1.2.1 1.9zm192.4.5c-1.2 2-1.4 1.4-.5-1.2.4-.9.9-1.4 1.1-1.1.3.2 0 1.3-.6 2.3zm-195.4 3c-.3 1-.5.4-.5-1.2 0-1.7.2-2.4.5-1.8.2.7.2 2.1 0 3zm21-1.5c-.3.8-.6.5-.6-.6-.1-1.1.2-1.7.5-1.3.3.3.4 1.2.1 1.9zm178.4 1.5c-1.2 2-1.4 1.4-.5-1.2.4-.9.9-1.4 1.1-1.1.3.2 0 1.3-.6 2.3zm2.9 8.4c-7.1 17.8-15.3 37-15.6 36.6-.3-.3 3.4-9.7 17.4-44 .8-2 1.7-3.5 1.9-3.3.2.2-1.5 5-3.7 10.7zm-187.3-6.9c-.3.8-.6.5-.6-.6-.1-1.1.2-1.7.5-1.3.3.3.4 1.2.1 1.9zm-21 2.5c-.3 1-.5.4-.5-1.2 0-1.7.2-2.4.5-1.8.2.7.2 2.1 0 3zm198.2 2.2c-.6 1.8-1.3 3-1.5 2.8-.2-.2.1-1.8.7-3.6s1.3-3 1.5-2.8c.2.2-.1 1.8-.7 3.6zm3.3 3.7c-4.5 10.8-16.5 36.4-16.9 36-.2-.2 2.1-5.9 5.2-12.7 3.1-6.8 7.4-16.6 9.7-21.7 4.7-10.7 6.2-11.9 2-1.6zm-194.5-3.4c-.3.7-.5.2-.5-1.2s.2-1.9.5-1.3c.2.7.2 1.9 0 2.5zm-3.8 13.3c1.1 7.1 4.5 32.9 7.6 57.3 3.1 24.4 5.8 45.8 6 47.5.3 1.8-.2.9-1-1.8-.8-2.8-4.4-28.4-8-57-3.6-28.6-6.8-53.8-7.2-56-.3-2.2-.3-3.8 0-3.5.3.3 1.4 6.3 2.6 13.5zm32.8-9.3c-.3.7-.5.2-.5-1.2s.2-1.9.5-1.3c.2.7.2 1.9 0 2.5zm-39 0c-.3.8-.6.5-.6-.6-.1-1.1.2-1.7.5-1.3.3.3.4 1.2.1 1.9zM359 288.6c-4.3 10.7-8.9 20.7-7.8 16.9 1-3.4 12.2-30.4 12.5-30.1.2.2-1.9 6.1-4.7 13.2zm30.1-9.9c-1.2 2-1.4 1.4-.5-1.2.4-.9.9-1.4 1.1-1.1.3.2 0 1.3-.6 2.3zm-223.4 3.5c-.3.7-.5.2-.5-1.2s.2-1.9.5-1.3c.2.7.2 1.9 0 2.5zm39 0c-.3.8-.6.5-.6-.6-.1-1.1.2-1.7.5-1.3.3.3.4 1.2.1 1.9zm182.4 1.5c-1.2 2-1.4 1.4-.5-1.2.4-.9.9-1.4 1.1-1.1.3.2 0 1.3-.6 2.3zm.8 4.2c-1.2 2.8-2.4 5-2.6 4.8-.2-.2.6-2.7 1.8-5.6 1.2-2.8 2.4-5 2.6-4.8.2.2-.6 2.7-1.8 5.6zm-14.8-2.2c-1.2 2-1.4 1.4-.5-1.2.4-.9.9-1.4 1.1-1.1.3.2 0 1.3-.6 2.3zm-206.4 3c-.3 1-.5.4-.5-1.2 0-1.7.2-2.4.5-1.8.2.7.2 2.1 0 3zm18 0c-.3 1-.5.4-.5-1.2 0-1.7.2-2.4.5-1.8.2.7.2 2.1 0 3zm194.7 13.4c-9.2 21.3-21.7 47-30.3 62.4-7.2 12.8-25.5 41.5-26.5 41.5-.3 0 2.6-5 6.5-11.2 17.3-27.3 36.5-63.5 49.4-93 3.8-8.7 7-15.6 7.2-15.4.2.2-2.6 7.2-6.3 15.7zm-8.3-11.4c-1.2 2-1.4 1.4-.5-1.2.4-.9.9-1.4 1.1-1.1.3.2 0 1.3-.6 2.3zm-175.4 3.5c-.3.7-.5.2-.5-1.2s.2-1.9.5-1.3c.2.7.2 1.9 0 2.5zm-28 1.5c-.3 1-.5.4-.5-1.2 0-1.7.2-2.4.5-1.8.2.7.2 2.1 0 3zm18 .5c-.3.7-.5.2-.5-1.2s.2-1.9.5-1.3c.2.7.2 1.9 0 2.5zm179.3 9.7c-5.2 12.6-10.7 24.1-11.5 24.1-.3 0 .1-1.3.7-2.8 9.7-22 15.2-34.1 15.5-33.8.2.1-1.9 5.8-4.7 12.5zm22.1-10.2c-1.2 2-1.4 1.4-.5-1.2.4-.9.9-1.4 1.1-1.1.3.2 0 1.3-.6 2.3zm-4 3c-1.2 2-1.4 1.4-.5-1.2.4-.9.9-1.4 1.1-1.1.3.2 0 1.3-.6 2.3zm-35 1c-1.2 2-1.4 1.4-.5-1.2.4-.9.9-1.4 1.1-1.1.3.2 0 1.3-.6 2.3zm31.9 13.2c-8.1 19-17.3 37.3-27.2 53.9-9.9 16.7-20.6 33.2-21.4 33.2-.3 0 .3-1.2 1.4-2.8 8.9-12.6 33.2-57.3 45.3-83.4 4-8.6 7.5-15.6 7.6-15.4.2.2-2.4 6.7-5.7 14.5zm-183.3-10.7c-.3.7-.5.2-.5-1.2s.2-1.9.5-1.3c.2.7.2 1.9 0 2.5zm-28 1c-.3.7-.5.2-.5-1.2s.2-1.9.5-1.3c.2.7.2 1.9 0 2.5zm18 1c-.3.7-.5.2-.5-1.2s.2-1.9.5-1.3c.2.7.2 1.9 0 2.5zm-10 1c-.3.7-.5.2-.5-1.2s.2-1.9.5-1.3c.2.7.2 1.9 0 2.5zm12-1c-.3.8-.6.5-.6-.6-.1-1.1.2-1.7.5-1.3.3.3.4 1.2.1 1.9zm143.5 29c-11.6 23.2-29.3 55.1-34.5 61.9-2.1 2.8-1.2.9 1.8-4.1 4-6.5 31.3-57.4 38.1-71.2 3.8-7.5 7-13.5 7.3-13.3.2.3-5.5 12.3-12.7 26.7zm-162.5-22.5c-.3 1-.5.4-.5-1.2 0-1.7.2-2.4.5-1.8.2.7.2 2.1 0 3zm28-.5c-.3.7-.5.2-.5-1.2s.2-1.9.5-1.3c.2.7.2 1.9 0 2.5zm-10 2c-.3.7-.5.2-.5-1.2s.2-1.9.5-1.3c.2.7.2 1.9 0 2.5zm-10 1c-.3.7-.5.2-.5-1.2s.2-1.9.5-1.3c.2.7.2 1.9 0 2.5zm12-1c-.3.8-.6.5-.6-.6-.1-1.1.2-1.7.5-1.3.3.3.4 1.2.1 1.9zM378.9 326c-7.9 17.7-24 49.4-32.5 64.1-9.4 16.5-24 39.9-26.1 41.9-.9.8.2-1.2 2.3-4.5 14.3-22.6 29-49.4 48.4-88.2 6.9-13.7 12.6-24.9 12.8-24.8.1.1-2 5.3-4.9 11.5zm-208.2-7.8c-.3.7-.5.2-.5-1.2s.2-1.9.5-1.3c.2.7.2 1.9 0 2.5zm28 0c-.3.7-.5.2-.5-1.2s.2-1.9.5-1.3c.2.7.2 1.9 0 2.5zm-20 2.5c-.3 1-.5.4-.5-1.2 0-1.7.2-2.4.5-1.8.2.7.2 2.1 0 3zm10-.5c-.3.7-.5.2-.5-1.2s.2-1.9.5-1.3c.2.7.2 1.9 0 2.5zm2 1c-.3.7-.5.2-.5-1.2s.2-1.9.5-1.3c.2.7.2 1.9 0 2.5zm5-1c-.3.8-.6.5-.6-.6-.1-1.1.2-1.7.5-1.3.3.3.4 1.2.1 1.9zm-24 6c-.3.7-.5.2-.5-1.2s.2-1.9.5-1.3c.2.7.2 1.9 0 2.5zm28 0c-.3.7-.5.2-.5-1.2s.2-1.9.5-1.3c.2.7.2 1.9 0 2.5zm-20 2.5c-.3 1-.5.4-.5-1.2 0-1.7.2-2.4.5-1.8.2.7.2 2.1 0 3zm10-.5c-.3.7-.5.2-.5-1.2s.2-1.9.5-1.3c.2.7.2 1.9 0 2.5zm2 1c-.3.7-.5.2-.5-1.2s.2-1.9.5-1.3c.2.7.2 1.9 0 2.5zm5-1c-.3.8-.6.5-.6-.6-.1-1.1.2-1.7.5-1.3.3.3.4 1.2.1 1.9zm152.9 2.5c-.8 1.5-1.5 2.5-1.6 2.1 0-1.2 2.3-5.8 2.7-5.4.3.2-.2 1.7-1.1 3.3zM336 341c-3.3 6.6-6.2 12-6.5 12-.3 0 2.2-5.4 5.5-12s6.2-12 6.5-12c.3 0-2.2 5.4-5.5 12zm-5.5 1.4c-5.5 11.7-11.9 23.3-15 27.1-.9 1.1.2-1.4 2.5-5.5s7.1-13.4 10.8-20.7c3.6-7.3 6.8-13.1 6.9-12.9.2.2-2.1 5.6-5.2 12zm-157.8-8.2c-.3.7-.5.2-.5-1.2s.2-1.9.5-1.3c.2.7.2 1.9 0 2.5zm28 0c-.3.7-.5.2-.5-1.2s.2-1.9.5-1.3c.2.7.2 1.9 0 2.5zm-20 2.5c-.3 1-.5.4-.5-1.2 0-1.7.2-2.4.5-1.8.2.7.2 2.1 0 3zm10-.5c-.3.7-.5.2-.5-1.2s.2-1.9.5-1.3c.2.7.2 1.9 0 2.5zm2 1c-.3.7-.5.2-.5-1.2s.2-1.9.5-1.3c.2.7.2 1.9 0 2.5zm5-1c-.3.8-.6.5-.6-.6-.1-1.1.2-1.7.5-1.3.3.3.4 1.2.1 1.9zm142.5 15c-4.4 9-8.8 17.2-9.7 18.3-.8 1.1 2.6-6.4 7.7-16.7 5.1-10.3 9.4-18.5 9.6-18.3.3.2-3.2 7.7-7.6 16.7zm-166.5-9c-.3.7-.5.2-.5-1.2s.2-1.9.5-1.3c.2.7.2 1.9 0 2.5zm28 0c-.3.7-.5.2-.5-1.2s.2-1.9.5-1.3c.2.7.2 1.9 0 2.5zm-20 2.5c-.3 1-.5.4-.5-1.2 0-1.7.2-2.4.5-1.8.2.7.2 2.1 0 3zm10-.5c-.3.7-.5.2-.5-1.2s.2-1.9.5-1.3c.2.7.2 1.9 0 2.5zm117.2-1c-9.2 17.9-28.8 49.8-41.2 67.2-7 9.8-9.6 12.7-13.9 15.3-10.3 6.1-10.8 5.1-1.9-3.8 15.2-15.1 34.1-41.1 51.1-70.2 3.5-5.9 6.5-10.7 6.7-10.7.2 0-.2 1-.8 2.2zm-115.2 2c-.3.7-.5.2-.5-1.2s.2-1.9.5-1.3c.2.7.2 1.9 0 2.5zm5-1c-.3.8-.6.5-.6-.6-.1-1.1.2-1.7.5-1.3.3.3.4 1.2.1 1.9zm141-1.5c-5.4 10-12 21.3-12.3 21.3-.6 0 .7-2.5 6.8-13.3 2.8-4.8 5.2-8.7 5.5-8.7.2 0 .2.3 0 .7zm-165 7.5c-.3.7-.5.2-.5-1.2s.2-1.9.5-1.3c.2.7.2 1.9 0 2.5zm28 0c-.3.7-.5.2-.5-1.2s.2-1.9.5-1.3c.2.7.2 1.9 0 2.5zm141 2c-1.3 2.4-4.1 7.3-6.1 11-3.8 6.9-6 9.5-3 3.5 3.2-6.3 10.6-18.7 11.1-18.7.3 0-.6 1.9-2 4.2zm-161 .5c-.3 1-.5.4-.5-1.2 0-1.7.2-2.4.5-1.8.2.7.2 2.1 0 3zm10-.5c-.3.7-.5.2-.5-1.2s.2-1.9.5-1.3c.2.7.2 1.9 0 2.5zm2 1c-.3.7-.5.2-.5-1.2s.2-1.9.5-1.3c.2.7.2 1.9 0 2.5zm5-1c-.3.8-.6.5-.6-.6-.1-1.1.2-1.7.5-1.3.3.3.4 1.2.1 1.9zm-24 6c-.3.7-.5.2-.5-1.2s.2-1.9.5-1.3c.2.7.2 1.9 0 2.5zm28 0c-.3.7-.5.2-.5-1.2s.2-1.9.5-1.3c.2.7.2 1.9 0 2.5zm-20 2.5c-.3 1-.5.4-.5-1.2 0-1.7.2-2.4.5-1.8.2.7.2 2.1 0 3zm10-.5c-.3.7-.5.2-.5-1.2s.2-1.9.5-1.3c.2.7.2 1.9 0 2.5zm7 0c-.3.8-.6.5-.6-.6-.1-1.1.2-1.7.5-1.3.3.3.4 1.2.1 1.9zm-2.2 22.7c.9 5.7 1.4 10.5 1.2 10.8-.7.6-4.6-19.6-5.2-26.2l-.5-6 1.5 5.5c.8 3 2.1 10.2 3 15.9zm-21.8-16.7c-.3.7-.5.2-.5-1.2s.2-1.9.5-1.3c.2.7.2 1.9 0 2.5zm8 2.5c-.3 1-.5.4-.5-1.2 0-1.7.2-2.4.5-1.8.2.7.2 2.1 0 3zm17 .5c-.3.7-.5.2-.5-1.2s.2-1.9.5-1.3c.2.7.2 1.9 0 2.5zM342 371c-.6 1.1-1.3 2-1.6 2-.2 0 0-.9.6-2s1.3-2 1.6-2c.2 0 0 .9-.6 2zm-164.3 2.2c-.3.7-.5.2-.5-1.2s.2-1.9.5-1.3c.2.7.2 1.9 0 2.5zm8 3.5c-.3 1-.5.4-.5-1.2 0-1.7.2-2.4.5-1.8.2.7.2 2.1 0 3zm31-.5c-.3.7-.5.2-.5-1.2s.2-1.9.5-1.3c.2.7.2 1.9 0 2.5zm-14 1c-.3.7-.5.2-.5-1.2s.2-1.9.5-1.3c.2.7.2 1.9 0 2.5zm135.8-.2c-.9 1.6-1.8 3-2.1 3-.2 0 .2-1.4 1.1-3 .9-1.7 1.8-3 2.1-3 .2 0-.2 1.3-1.1 3zm-125.6 13.5c2.2 14.6 2.5 19.5 1 13.5-.9-3.6-3.9-24.2-3.9-26.9 0-4.1 1.1.9 2.9 13.4zm97.9-8.8c-5.7 10.4-20.7 31.3-22.4 31.3-.3 0 3.2-5.5 7.9-12.3 13-18.9 17.1-24.7 17.4-24.7.2 0-1.1 2.6-2.9 5.7zM197.5 401c2.7 14.5 2.7 15.2 0 6-2.4-7.9-5.6-25.5-5.4-29 .2-1.9 3.1 10.7 5.4 23zm31.4 20.2c2 5.9 1.4 7.7-1.3 3.5-2-2.9-9.3-32.9-10.1-40.9-.4-4.8.6-1.9 4.4 12.7 2.7 10.4 5.8 21.6 7 24.7zm-25.2-36.5c-.3 1-.5.2-.5-1.7s.2-2.7.5-1.8c.2 1 .2 2.6 0 3.5zm108.2 3c-4.6 7.8-12.9 20.3-13.3 20.3-.4 0 3.8-7 12.1-20.3 1.3-2 2.6-3.7 2.9-3.7.3 0-.4 1.7-1.7 3.7zm-107.2 4.5c-.2 1.3-.4.5-.4-1.7-.1-2.2.1-3.2.4-2.3.2 1 .2 2.8 0 4zM341 390c-.6 1.1-1.3 2-1.6 2-.2 0 0-.9.6-2s1.3-2 1.6-2c.2 0 0 .9-.6 2zm-135.3 8.7c-.3 1-.5.4-.5-1.2 0-1.7.2-2.4.5-1.8.2.7.2 2.1 0 3zm114.7-1.5c-3.6 6-8.7 13.8-9.1 13.8-.3 0 .1-1 .9-2.3.9-1.2 3-4.6 4.7-7.5 1.8-2.8 3.5-5.2 3.7-5.2.3 0 .2.6-.2 1.2zm15.1 1.5c-10.1 15.8-27 37.6-35 45.3-2.6 2.5 1.4-3.2 9-12.5 7.6-9.4 16.7-21.2 20.3-26.3 3.6-5 6.7-9.2 7-9.2.2 0-.4 1.2-1.3 2.7zm-146.8 5.5c-.3.8-.6.5-.6-.6-.1-1.1.2-1.7.5-1.3.3.3.4 1.2.1 1.9zm1 5c-.3.7-.5.2-.5-1.2s.2-1.9.5-1.3c.2.7.2 1.9 0 2.5zm93.3-1.8c0 .2-.8 1-1.7 1.7-1.6 1.3-1.7 1.2-.4-.4 1.3-1.6 2.1-2.1 2.1-1.3zm9.9 5.3c-5 8.3-9.9 15-13 17.9-3.4 3-8.9 6.8-8.9 6 0-1.3 22.6-27.5 23.8-27.6.2 0-.7 1.7-1.9 3.7zm-73.4 7.1c-.5.5-2.5-6.9-2.4-8.8 0-.8.7.7 1.4 3.5.8 2.7 1.2 5.1 1 5.3zm-14 4.6c1.4 4.9 2 8.5 1.4 7.9-1-1-5.9-18.6-5.8-20.8.1-1.8 2 3.8 4.4 12.9zm74.5-13c0 .2-.8 1-1.7 1.7-1.6 1.3-1.7 1.2-.4-.4 1.3-1.6 2.1-2.1 2.1-1.3zm-91.1 12.5c1.8 6.2 3 11.6 2.7 11.8-.7.8-6.6-19.4-6.6-22.8 0-2.5.9-.1 3.9 11zm70.1-11.5c0 .2-.8 1-1.7 1.7-1.6 1.3-1.7 1.2-.4-.4 1.3-1.6 2.1-2.1 2.1-1.3zm56.9 7.2c-5.7 8.3-15.1 19.1-10.8 12.4 2.7-4.2 15.1-20 15.6-20 .2 0-1.9 3.4-4.8 7.6zm-121.2-4.4c-.3.8-.6.5-.6-.6-.1-1.1.2-1.7.5-1.3.3.3.4 1.2.1 1.9zm26 1c-.3.8-.6.5-.6-.6-.1-1.1.2-1.7.5-1.3.3.3.4 1.2.1 1.9zm-37.3 18c.5 2.2.4 2.8-.2 1.8-1-1.6-6.2-19.3-6.1-20.7.1-1.3 5.6 15.1 6.3 18.9zm90.8-15.5c-1.6 2.1-4.9 5.8-7.2 8.3-4.5 4.8-2.2 1.7 4.9-6.8 5.1-6 6.7-7 2.3-1.5zm-77.3 3.3c0 .9-.4.8-.9-.5-.5-1.1-.9-2.7-.9-3.5 0-.9.4-.8.9.5.5 1.1.9 2.7.9 3.5zm73.1-4.6c0 .2-.8 1-1.7 1.7-1.6 1.3-1.7 1.2-.4-.4 1.3-1.6 2.1-2.1 2.1-1.3zm-57.5 6.6c.5 2.3.4 3.2-.3 2.5-.5-.6-1.2-2.8-1.6-5-.8-4.8.8-2.7 1.9 2.5zm9.2-3.8c-.3.8-.6.5-.6-.6-.1-1.1.2-1.7.5-1.3.3.3.4 1.2.1 1.9zM279 422c-1.2 1.6-2.4 3-2.6 3-.3 0 .4-1.4 1.6-3 1.2-1.7 2.4-3 2.6-3 .3 0-.4 1.3-1.6 3zm13-1.7c0 .2-1 1.2-2.2 2.3l-2.3 1.9 1.9-2.3c1.8-2.1 2.6-2.7 2.6-1.9zm-26 2.1c0 .2-.8 1-1.7 1.7-1.6 1.3-1.7 1.2-.4-.4 1.3-1.6 2.1-2.1 2.1-1.3zm34.3 3.8c-1 1.8-5.3 6.8-9.7 11.3-4.3 4.4-5.9 5.7-3.6 3 2.3-2.8 6.5-7.8 9.3-11.3 2.8-3.4 5.2-6.2 5.4-6.2.2 0-.4 1.4-1.4 3.2zm-97.4 2.8c0 1-.3.8-.9-.5-1.2-2.7-1.2-4.3 0-2.5.5.8.9 2.2.9 3zm18.9-.5c-.3.3-.9-.2-1.2-1.2-.6-1.4-.5-1.5.5-.6.7.7 1 1.5.7 1.8zm38.2-2.2c0 .2-1.5 1.6-3.2 3.3l-3.3 2.9 2.9-3.3c2.8-3 3.6-3.7 3.6-2.9zm-51.3 2.9c-.3.8-.6.5-.6-.6-.1-1.1.2-1.7.5-1.3.3.3.4 1.2.1 1.9zm23.2.2c1 1.2.8 1.3-.9.9-2.5-.7-3.7-2.3-1.7-2.3.8 0 2 .6 2.6 1.4zm21.1-1c0 1.1-8.5 5.4-9.4 4.9-.5-.4 1.3-1.6 4-2.9 5.8-2.7 5.4-2.5 5.4-2zm31.1 3.4c-1.1 1.6-2.8 3.5-3.8 4.3-1 .8-.3-.5 1.6-2.9 3.7-4.7 5.3-5.8 2.2-1.4zm-74.4 1.4c-.3.8-.6.5-.6-.6-.1-1.1.2-1.7.5-1.3.3.3.4 1.2.1 1.9zm5.6.5c.5 2.7.2 4.1-.7 3.2-1.1-1-1.7-5.9-.8-5.9.5 0 1.2 1.2 1.5 2.7zm-10.3.4c0 .6-.4.7-1 .4-.5-.3-1-1.1-1-1.6 0-.6.5-.7 1-.4.6.3 1 1.1 1 1.6zm26.8-.3c.6 1.8-1.5 1.4-2.2-.4-.4-1-.1-1.4.6-1.2.6.2 1.4 1 1.6 1.6zm81.6 4.9c-21 29.8-34.1 42.7-46.7 46.3-5.8 1.6-8.5.8-3.2-1 8.1-2.6 15.2-7.6 26.1-18.4 6.1-6.1 14.8-16.2 19.4-22.4 9.2-12.3 12-15.2 4.4-4.5zm-44-3.2c-.9 1.4-1.8 2.5-2.1 2.5-.5 0 .5-1.8 2-3.8 1.7-2.2 1.8-1.3.1 1.3zm-20.9-.5c-.3.5-1.1 1-1.6 1-.6 0-.7-.5-.4-1 .3-.6 1.1-1 1.6-1 .6 0 .7.4.4 1zm28.5 2c-1.9 2.6-6.7 6-8.5 6-.6 0 9.6-8.8 10.3-8.9.2-.1-.6 1.3-1.8 2.9zm-68 .1c0 .6-.4.7-1 .4-.5-.3-1-1.1-1-1.6 0-.6.5-.7 1-.4.6.3 1 1.1 1 1.6zm54-.6c0 .2-1 1-2.2 1.6-2.1 1.1-2.2 1.1-.9-.4 1.3-1.6 3.1-2.3 3.1-1.2zm-61 5.9c0 .5-.7.3-1.5-.4s-1.5-2.2-1.5-3.4c.1-2 .2-2 1.5.4.8 1.4 1.4 2.9 1.5 3.4zm98-5.1c0 .2-1.7 1.9-3.7 3.8l-3.8 3.4 3.4-3.8c3.3-3.4 4.1-4.2 4.1-3.4zm4.2 6.4c-5.4 6.5-21.9 22.3-23.2 22.3-1.7 0 5.7-8.3 10.9-12.3 2.5-2 7.1-6.1 10.1-9.1 3-3.1 5.6-5.6 5.8-5.6.2 0-1.4 2.1-3.6 4.7zm-115.3.7c.5 2.2.6 3.5.2 3-.9-.9-2.7-8.3-1.8-7.4.3.3 1 2.3 1.6 4.4zm43.5-.5c-.6.6-2.4-1.9-2.4-3.4.1-.6.7-.1 1.5.9.8 1.1 1.2 2.2.9 2.5zm45.6-3.5c0 .2-.8 1-1.7 1.7-1.6 1.3-1.7 1.2-.4-.4 1.3-1.6 2.1-2.1 2.1-1.3zm37 0c0 .2-.8 1-1.7 1.7-1.6 1.3-1.7 1.2-.4-.4 1.3-1.6 2.1-2.1 2.1-1.3zm-97 3.2c0 .8-.4 1.2-1 .9-.5-.3-1-1.3-1-2.1s.5-1.2 1-.9c.6.3 1 1.3 1 2.1zm19.8-.9c.6 1.9-3.5 1.6-4.2-.3-.4-1.1 0-1.5 1.6-1.2 1.2.2 2.3.9 2.6 1.5zm19.2-.2c-.7.8-1.8 1.5-2.4 1.5-.6 0-.2-.7.8-1.5 2.5-1.9 3.2-1.9 1.6 0zm14.3 1.9c-.4.7-2 2.7-3.5 4.5-2.3 2.7-3.1 3-4.8 2.1-1.7-.9-1.8-1.4-.8-3 .7-1.1 3.1-2.6 5.3-3.3 2.2-.8 4.1-1.5 4.3-1.6.2 0-.1.5-.5 1.3zm3.7 0c0 .2-.8 1-1.7 1.7-1.6 1.3-1.7 1.2-.4-.4 1.3-1.6 2.1-2.1 2.1-1.3zm-78 6.5c-.1 1.2-.5 1.1-2-.8-1.1-1.3-2-3.1-2-4 .1-1.2.5-1.1 2 .8 1.1 1.3 2 3.1 2 4zm55.7-3.3c-.9.9-2.8-.6-2.1-1.8.4-.6 1-.6 1.7.1.6.6.8 1.3.4 1.7zm53.3-2.3c0 .2-1 1.2-2.2 2.3l-2.3 1.9 1.9-2.3c1.8-2.1 2.6-2.7 2.6-1.9zM187.4 451c.5 1.7.4 2-.2 1-.5-.8-1.3-2.6-1.6-4-.5-1.7-.4-2 .2-1 .5.8 1.3 2.6 1.6 4zm17.1-3c1 1.1 1.6 2.2 1.4 2.5-.7.6-4.9-2.4-4.9-3.6 0-1.5 1.6-1 3.5 1.1zm24-1c.3.5.1 1-.4 1-.6 0-1.1-.5-1.1-1 0-.6.2-1 .4-1 .3 0 .8.4 1.1 1zm60.7 4.3c-2.3 2.3-4.2 3.8-4.2 3.4 0-1.2 7.2-8.8 7.8-8.2.3.3-1.3 2.5-3.6 4.8zM250 449c0 .5-1.2 1-2.6 1-1.4 0-2.3-.4-1.9-1 .3-.6 1.5-1 2.6-1 1 0 1.9.4 1.9 1zm-57.2 7.7c1.4 4.5 1.7 6.2.8 5.2-1.7-1.6-4.8-11.9-3.7-11.9.4 0 1.7 3 2.9 6.7zm105.4-1.9c-9.9 11.8-28.4 27.2-32.8 27.2-1.8 0 7.4-8.4 13.9-12.7 3.8-2.5 10.3-7.9 14.5-11.9 4.2-4 7.9-7.3 8-7.4.2 0-1.4 2.1-3.6 4.8zm-89.7 1.2c.7 1.2-2.5 1.3-4.1.2-.6-.4-1.5-1.8-1.9-3.1l-.7-2.4 3.1 2.2c1.7 1.2 3.3 2.6 3.6 3.1zm2.5-2.9c0 .6-.4.7-1 .4-.5-.3-1-1.1-1-1.6 0-.6.5-.7 1-.4.6.3 1 1.1 1 1.6zm32.6 2.7c-1.3 1.3-1.8 1.3-4.2-.3l-2.7-1.8 2.4-1.3c2-1 2.7-1 4.2.4s1.6 1.7.3 3zm18.4-3.2c0 .2-.7.4-1.5.4s-1.5-.4-1.5-1c0-.5.7-.7 1.5-.4.8.4 1.5.8 1.5 1zm-64.5 2.4c1.6 1.7 1.6 2 .3 1.5-.9-.4-1.9-1.3-2.2-2.1-.7-1.9-.2-1.8 1.9.6zm58-1c-.3.5-1.1 1-1.6 1-.6 0-.7-.5-.4-1 .3-.6 1.1-1 1.6-1 .6 0 .7.4.4 1zm23 0c-.3.5-2 1.9-3.8 3l-3.2 2.2 3.5-3.1c3.5-3.2 4.6-3.8 3.5-2.1zm-17 1c.4.6-.7 1-2.5 1s-2.9-.4-2.5-1c.3-.6 1.5-1 2.5-1s2.2.4 2.5 1zm-28.1 3.5c2 3 2 3.5.2 3.5-1.9 0-4.6-2.7-4.6-4.6 0-2.2 2.6-1.6 4.4 1.1zm44.1.5c-1.6 1.6-3.2 3-3.7 3-.8 0 5.3-5.9 6.1-6 .3 0-.8 1.3-2.4 3zm-38-.2c-.3.3-1.1 0-1.8-.7-.9-1-.8-1.1.6-.5 1 .3 1.5.9 1.2 1.2zm12-.8c.3.5-.1 1-1 1s-1.3-.5-1-1c.3-.6.8-1 1-1 .2 0 .7.4 1 1zm6.7.2c-1.7.8-2.6.8-3.4 0-.9-.9-.4-1.2 2.3-1.1 3.2 0 3.3.1 1.1 1.1zm-68.6 8.3c1.8 1.7 2.2 2.5 1.2 2.5-2.4 0-6.9-6.8-6.8-10.3.1-.7.7.3 1.5 2.1.8 1.7 2.6 4.3 4.1 5.7zm11.4-3.9c2.4 5.5 2.4 5.5.6 4.8-.8-.3-2.2-2.3-3-4.5-1.9-4.7-1.9-4.9-.6-4.9.6 0 2 2.1 3 4.6zm23.7-3.1c.9 2.5-.4 2.9-1.7.6-.7-1.5-.7-2.1 0-2.1.6 0 1.3.7 1.7 1.5zm41.3-1.2c0 .2-1 1.2-2.2 2.3l-2.3 1.9 1.9-2.3c1.8-2.1 2.6-2.7 2.6-1.9zm-56.7 3.3c2.1 1.4 3.6 2.8 3.4 3.1-.7.6-6.1-2.2-7.6-4.1-2-2.4 0-1.9 4.2 1zm19.2.4c.3.5.1 1-.4 1-.6 0-1.1-.5-1.1-1 0-.6.2-1 .4-1 .3 0 .8.4 1.1 1zm-11.9 1.5c1 .8 1.4 1.5.8 1.5-.5 0-1.9-.7-3-1.5-1-.8-1.4-1.5-.8-1.5.5 0 1.9.7 3 1.5zm-20 3.2c-.7.7-2.6-.7-2.6-1.9 0-.6.6-.6 1.5.2.9.7 1.3 1.5 1.1 1.7zm16.4-.1c1.9.7 4.5 1.3 5.8 1.4 1.2 0 2.2.2 2.2.4s.3 1.1.6 2c.5 1.3-.2 1.6-4.2 1.6-7.2 0-9.1-.8-10.3-4.2-1.4-4-1.4-4.1.7-3.3.9.4 3.3 1.4 5.2 2.1zm32-1.6c0 .5-.4 1-1 1-.5 0-1-.5-1-1 0-.6.5-1 1-1 .6 0 1 .4 1 1zm4.4.9c.3.5-.1 1.2-1 1.5-2 .8-2.9.1-1.9-1.3.8-1.3 2.2-1.4 2.9-.2zm27.2 2c-2.3 2.4-6.6 4.8-6.6 3.6 0-.4 8.3-6.5 8.9-6.5.3 0-.8 1.3-2.3 2.9zm-34.1-.9c.3.5.2 1-.4 1-.5 0-1.3-.5-1.6-1-.3-.6-.2-1 .4-1 .5 0 1.3.4 1.6 1zm27.1.5c-.1.8-.6 1.8-1.1 2.2-.4.4-.5.2-.1-.5 1.1-1.8.1-1.5-4 1.3s-8 3.6-5.4 1.1c1.6-1.5 9-5.6 10.1-5.6.4 0 .6.7.5 1.5zm-15.6-.1c0 .2-.7.7-1.6 1-.8.3-1.2.2-.9-.4.6-1 2.5-1.4 2.5-.6zm-14.5 1.6c.3.5-.1 1-1 1s-1.3-.5-1-1c.3-.6.8-1 1-1 .2 0 .7.4 1 1zm-15 1c.3.5.1 1-.4 1-.6 0-1.1-.5-1.1-1 0-.6.2-1 .4-1 .3 0 .8.4 1.1 1zm-32 2c1.5 1.6 1.5 2 .3 2-.8 0-2.3-.9-3.3-2-1.5-1.6-1.5-2-.3-2 .8 0 2.3.9 3.3 2zm15 5.8c-.9.9-7.5-2.1-9.6-4.4-2.3-2.5-2.1-2.4 3.8.8 3.4 1.8 6 3.5 5.8 3.6zm19.2-5.2c-.3.3-1.2.4-1.9.1-.8-.3-.5-.6.6-.6 1.1-.1 1.7.2 1.3.5zm-3.7.9c0 1.1-5.4 2.6-6.9 1.9-1.2-.5-.8-.9 1.4-1.4 3.9-1 5.5-1.1 5.5-.5zm18 .4c0 1-3 2.4-3.7 1.7-.3-.3-.2-.9.2-1.5.8-1.3 3.5-1.5 3.5-.2zm-9.5 1.2c.4.6-.1 1.7-1.1 2.4-2.5 1.9-3.3 1.8-4.1-.1-1-2.6 3.8-4.7 5.2-2.3zm11.9.4c-1 .8-2.3 1.5-2.8 1.5-.6 0-.1-.7 1-1.5 1-.8 2.3-1.5 2.8-1.5.6 0 .1.7-1 1.5zm23.1 2.6c-2.2 2.2-4.9 4.5-6 5.1-1.1.6.2-1.3 3-4.1 2.7-2.8 5.4-5.1 5.9-5.1.6 0-.8 1.8-2.9 4.1zm-72.3-1.4c2 2.4 3 5.3 1.7 5.3-1.2 0-5.9-4.9-5.9-6.1 0-1.5 2.6-1 4.2.8zm69.8-1.2c0 .2-2.3 2.3-5.1 4.5-5.2 4.1-8.5 4.6-11.7 1.5-1.1-1 0-1.7 5.5-3.7 6.4-2.4 11.3-3.4 11.3-2.3zm-39.5 2.6c1 1.4.1 2.1-1.9 1.3-.9-.3-1.3-1-1-1.5.7-1.2 2.1-1.1 2.9.2zm9.5-.1c-.8.5-1.9 1-2.5 1-.5 0-.3-.5.5-1s2-1 2.5-1c.6 0 .3.5-.5 1zm3 1c-.8.5-1.9 1-2.5 1-.5 0-.3-.5.5-1s2-1 2.5-1c.6 0 .3.5-.5 1zm-18.4 9.7c5.3.9 4 2.3-2 2.3-6.7 0-15.2-4.1-17.8-8.7l-1.8-3.1 9.1 4.5c5 2.5 10.6 4.7 12.5 5zm-13.6-7.1c0 .2-.9 0-2-.6s-2-1.3-2-1.6c0-.2.9 0 2 .6s2 1.3 2 1.6zm6 0c2.5 2.4-1.4 1.8-4.1-.7l-2.4-2 2.5.7c1.4.3 3.2 1.2 4 2zm7-.1c3.5 2 .2 2-3.6 0-2.3-1.2-2.5-1.5-.9-1.5 1.1.1 3.1.7 4.5 1.5zm20 .5c-.8.5-2.8.9-4.5.9-3-.2-3-.2.5-.9 5.1-1.1 5.7-1.1 4 0zm9.1 1.7c1.6 1 2.9 2 2.9 2.4 0 .4-1.8 1.4-4.1 2.3-3.9 1.6-4.3 1.6-7.2-.3l-3-1.9 3.9-2.1c4.8-2.5 4-2.4 7.5-.4zm-18.1 1l4.5.6-3 1.3c-4.2 1.8-6.3 1.7-9.1-.5-2.5-2-1.5-3.5 1.6-2.5.8.3 3.5.8 6 1.1zm42.5.9c-4.6 3.5-12.1 6.6-17.4 7.1-4.3.3-5.2.2-4.1-.7 3.7-2.7 9.2-5 12.2-5.1 1.8 0 4.9-.7 6.8-1.4 4.6-1.8 4.9-1.7 2.5.1zm-54 .4c.8 1.3-1.5 1.3-3.5 0-1.2-.8-1.1-1 .7-1 1.2 0 2.5.4 2.8 1zm-4.5 6.3c1.9.3 5.3.2 7.5-.2 3-.5 5.1-.2 8.3 1.2 2.9 1.2 6 1.8 9.3 1.5 2.7-.1 4.9-.2 4.9 0s-2.5 1.4-5.5 2.8c-9.6 4.4-18.9 3.2-27.3-3.5-2.1-1.5-4.7-3.1-5.9-3.5-1.1-.4-2.3-1.3-2.6-2-.4-.9.9-.6 3.6.9 2.3 1.3 5.8 2.5 7.7 2.8zm24.1-3.3l2.4 1.9-3.7.1c-2 0-4.4-.3-5.3-.7-1.5-.5-1.4-.8.6-1.9 3.1-1.7 3.3-1.7 6 .6zm12.9.5c-3.6 2.7-4.3 2.9-5.3 1.8-.4-.3 1-1.4 3-2.4 5.4-2.5 6.2-2.3 2.3.6zm-9.2 3.6c-1.8.7-4.2.7-7 .1-4.2-1-4.1-1 2.7-1 5.8 0 6.5.1 4.3.9z"/></svg>